<svg width="523" height="264" viewBox="0 0 523 264" fill="none" xmlns="http://www.w3.org/2000/svg">
<g clip-path="url(#clip0_16606_71)">
<path fill-rule="evenodd" clip-rule="evenodd" d="M373.005 984.037L304.746 944.673C297.268 940.363 293.536 932.826 293.536 925.281V900.339L247.85 926.684L344.731 982.502C353.43 987.516 363.937 988.028 373.005 984.037ZM563.252 38.5857V314.218L449.97 248.894C443.035 244.892 434.494 244.892 427.558 248.894L315.052 313.775V238.115C315.052 229.932 310.996 221.757 302.893 217.082L169.677 140.262C165.916 138.092 161.721 137.007 157.525 137.006V38.5857C157.525 28.0575 162.738 17.5388 173.183 11.5241L344.731 -87.3131C354.419 -92.8976 366.349 -92.8976 376.037 -87.3131L547.594 11.5241C558.029 17.5388 563.252 28.0575 563.252 38.5857Z" fill="url(#paint0_linear_16606_71)"/>
<path opacity="0.23" d="M547.589 11.5241L376.042 -87.3131C366.354 -92.8976 354.423 -92.8976 344.735 -87.3131L173.179 11.5241C152.308 23.5536 152.308 53.6179 173.179 65.6378L344.726 164.475C354.414 170.059 366.344 170.059 376.032 164.475L547.579 65.6378C568.45 53.6083 568.45 23.544 547.579 11.5241H547.589Z" fill="#5576FF"/>
</g>
<g opacity="0.7" clip-path="url(#clip1_16606_71)">
<path d="M584 339.11V925.281C584 932.825 580.261 940.363 572.791 944.673L449.971 1015.5C443.036 1019.5 434.495 1019.5 427.559 1015.5L304.747 944.673C297.269 940.363 293.537 932.825 293.537 925.281V339.11C293.537 331.566 297.269 324.028 304.747 319.718L427.559 248.894C434.495 244.892 443.036 244.892 449.971 248.894L572.791 319.718C580.261 324.028 584 331.566 584 339.11Z" fill="url(#paint2_linear_16606_71)"/>
<path d="M572.787 319.718L449.975 248.894C443.039 244.892 434.498 244.892 427.562 248.894L304.743 319.718C289.802 328.338 289.802 349.882 304.743 358.495L427.556 429.319C434.491 433.321 443.032 433.321 449.968 429.319L572.78 358.495C587.722 349.875 587.722 328.331 572.78 319.718H572.787Z" fill="#5576FF"/>
</g>
<g opacity="0.8" clip-path="url(#clip2_16606_71)">
<path fill-rule="evenodd" clip-rule="evenodd" d="M315.053 313.775V238.115C315.053 229.932 310.997 221.757 302.894 217.082L169.677 140.262C162.155 135.921 152.891 135.921 145.368 140.262L12.1586 217.082C4.04791 221.757 0 229.932 0 238.115V873.909C0 882.092 4.04791 890.268 12.1586 894.943L145.368 971.763C152.891 976.103 162.155 976.103 169.677 971.763L293.537 900.339V339.11C293.537 331.566 297.269 324.028 304.747 319.718L315.053 313.775Z" fill="url(#paint4_linear_16606_71)"/>
<path opacity="0.18" d="M302.89 217.082L169.681 140.262C162.158 135.921 152.894 135.921 145.371 140.262L12.1549 217.082C-4.05163 226.432 -4.05163 249.799 12.1549 259.141L145.364 335.961C152.887 340.301 162.151 340.301 169.674 335.961L302.883 259.141C319.089 249.791 319.089 226.424 302.883 217.082H302.89Z" fill="#5576FF"/>
</g>
<defs>
<linearGradient id="paint0_linear_16606_71" x1="360.389" y1="-91.5015" x2="360.389" y2="986.69" gradientUnits="userSpaceOnUse">
<stop stop-color="#5576FF"/>
<stop offset="0.62" stop-color="#7D0127"/>
</linearGradient>
<linearGradient id="paint2_linear_16606_71" x1="438.769" y1="245.893" x2="438.769" y2="1018.5" gradientUnits="userSpaceOnUse">
<stop stop-color="#5576FF"/>
<stop offset="0.5" stop-color="#7D0127"/>
</linearGradient>
<linearGradient id="paint4_linear_16606_71" x1="157.526" y1="137.006" x2="157.526" y2="975.018" gradientUnits="userSpaceOnUse">
<stop stop-color="#5576FF"/>
<stop offset="0.5" stop-color="#7D0127"/>
</linearGradient>
<clipPath id="clip0_16606_71">
<rect width="405.726" height="1078.19" fill="white" transform="translate(157.525 -91.5015)"/>
</clipPath>
<clipPath id="clip1_16606_71">
<rect width="290.463" height="772.606" fill="white" transform="translate(293.537 245.893)"/>
</clipPath>
<clipPath id="clip2_16606_71">
<rect width="315.053" height="838.012" fill="white" transform="translate(0 137.006)"/>
</clipPath>
</defs>
</svg>
